<?xml version="1.0" encoding="utf-8"?><svg viewBox="0 0 140 24" xmlns="http://www.w3.org/2000/svg" xmlns:xlink="http://www.w3.org/1999/xlink"><style>:root>svg{display:none}:root>svg:target{display:block}</style><svg fill="none" viewBox="0 0 18 14" id="Vector" xmlns="http://www.w3.org/2000/svg"><path d="M16.22.098L1.447 5.795C.437 6.2.443 6.763 1.26 7.013l3.793 1.184 8.777-5.538c.415-.252.794-.116.482.16l-7.11 6.418H7.2h.001l-.261 3.91c.383 0 .552-.175.767-.383l1.843-1.791 3.832 2.83c.707.39 1.215.19 1.39-.654L17.29 1.293c.258-1.033-.394-1.5-1.068-1.195z" fill="#E4E5EA"/></svg><svg fill="none" viewBox="0 0 140 24" id="logo_welbex" xmlns="http://www.w3.org/2000/svg"><g clip-path="url(#bclip0_0_31)"><path fill-rule="evenodd" clip-rule="evenodd" d="M45.002 5l6.287 12.557-.79 1.563L43.168 5h1.833zm20.385 0l-7.27 14.12L50.46 5h1.774l5.882 11.051a178.757 178.757 0 002.131-4.217c.38-.778.756-1.547 1.129-2.306.372-.76.71-1.453 1.012-2.08.302-.628.556-1.162.762-1.6.206-.44.34-.722.405-.848h1.832zm13.875 1.374V5h-9.335v14.138h9.335v-1.374h-7.907v-4.989h6.596v-1.374h-6.596V6.374h7.907zm4.155 12.764V5h1.427v12.764h7.907v1.374h-9.334zM96.906 5v14.138h6.923c.103 0 .332-.034.685-.103.354-.07.736-.223 1.148-.461.193-.113.395-.26.607-.443.212-.182.402-.404.569-.668a3.85 3.85 0 00.415-.932c.109-.358.164-.775.164-1.252 0-.54-.071-1.01-.212-1.412a3.817 3.817 0 00-.54-1.035 2.868 2.868 0 00-.743-.697 4.144 4.144 0 00-.839-.414c.283-.276.527-.656.733-1.139.206-.483.308-1.064.308-1.741 0-.502-.054-.935-.163-1.3a3.815 3.815 0 00-.415-.94 2.912 2.912 0 00-.559-.66 3.728 3.728 0 00-1.225-.725 4.01 4.01 0 00-.54-.15 3.177 3.177 0 00-.569-.066h-5.747zm6.885 12.764c.051 0 .193-.022.424-.066.232-.044.479-.147.743-.31.263-.164.498-.411.704-.744.205-.333.308-.788.308-1.365s-.103-1.032-.308-1.365c-.206-.332-.441-.583-.704-.753a2.132 2.132 0 00-.752-.32 3.745 3.745 0 00-.434-.066h-5.439v4.99h5.458zm-.723-6.438c-.225.05-.364.075-.415.075h-4.32V6.374h4.32c.026 0 .148.02.366.057.219.037.457.135.714.292.257.156.492.401.704.734.212.332.318.794.318 1.384 0 .577-.099 1.035-.299 1.374-.199.339-.424.596-.675.772-.25.175-.488.288-.713.339zM121.639 5v1.374h-7.908v5.027h6.596v1.374h-6.596v4.99h7.908v1.373h-9.335V5h9.335zm10.692 8.114l4.822 6.024h1.89l-5.612-7.078L139.043 5h-1.89l-4.822 6.024L127.78 5h-2.141l5.612 7.06-5.612 7.078h2.141l4.551-6.024z" fill="#E4E5EA"/></g><g clip-path="url(#bclip1_0_31)"><path fill-rule="evenodd" clip-rule="evenodd" d="M24.595 0H0v12.784h1.32V1.29h21.954v4.238h-2.19v.01h-.016c-.058.114-.182.373-.37.774-.188.402-.42.89-.697 1.463-.276.574-.585 1.208-.926 1.902a790.01 790.01 0 00-1.032 2.109 160.12 160.12 0 01-1.95 3.856L10.715 5.536H9.092l7.002 12.909 6.007-11.66h2.492v-.014h.002V0zM0 17.196h.006v-.014H8.47L2.424 5.537H4.1l5.75 11.48-.723 1.429-.011-.021v.015H1.32v4.271h21.953V11.184h1.32V24H0v-6.804zM33.695 24V0h1.357v24h-1.357z" fill="#E4E5EA"/></g><defs><clipPath id="bclip0_0_31"><path fill="#fff" transform="translate(43 5)" d="M0 0h97v15H0z"/></clipPath><clipPath id="bclip1_0_31"><path fill="#fff" d="M0 0h35v24H0z"/></clipPath></defs></svg><svg fill="none" viewBox="0 0 16 16" id="phone" xmlns="http://www.w3.org/2000/svg"><path d="M8.774 0a.504.504 0 00-.516.49c0 .271.231.49.516.49 3.42 0 6.194 2.635 6.194 5.885 0 .27.23.49.516.49.285 0 .516-.22.516-.49C16 3.073 12.765 0 8.774 0zM2.167 1.6c.293-.143.808-.216 1.103.046.37.327.939.9 1.33 1.399.39.5.938 1.26 1.016 1.43.078.17.165.769-.226 1.13-.313.29-.721.546-.886.638a.825.825 0 00-.182.984c.278.6.877 1.776 1.91 2.653 1.034.876 2.129 1.337 2.815 1.484.044 0 .1.01.165.021.232.041.579.102.877-.198.306-.308.585-.63.687-.754.159-.164.622-.442 1.198-.246.721.246 1.546.785 1.92 1.038.299.203.964.684 1.26.9.18.13.48.52.243 1.03-.296.638-1.555 2.045-2.684 2.045-.417 0-4.448-1.084-8.01-4.144C2.43 9.102.472 5.71.136 4.567c-.128-.271-.278-.94.139-1.445.417-.504.886-1.03 1.893-1.522zM8.774 3.923a.504.504 0 00-.516.49c0 .27.231.49.516.49 1.14 0 2.065.878 2.065 1.962 0 .27.23.49.516.49.285 0 .516-.22.516-.49 0-1.625-1.386-2.942-3.097-2.942z" fill="#E4E5EA"/><path d="M8.258 2.452c0-.271.231-.49.516-.49 2.85 0 5.162 2.195 5.162 4.903 0 .27-.232.49-.517.49a.504.504 0 01-.516-.49c0-2.167-1.848-3.923-4.129-3.923a.504.504 0 01-.516-.49z" fill="#E4E5EA"/></svg><svg fill="none" viewBox="0 0 20 20" id="whatsapp" xmlns="http://www.w3.org/2000/svg"><path fill-rule="evenodd" clip-rule="evenodd" d="M15.669 4.325A7.948 7.948 0 0010.034 2C5.643 2 2.068 5.557 2.067 9.928c0 1.398.366 2.761 1.063 3.964L2 18l4.223-1.103a8 8 0 003.807.965h.004c4.39 0 7.964-3.556 7.966-7.928a7.852 7.852 0 00-2.331-5.609zm-5.635 12.2h-.003a6.632 6.632 0 01-3.37-.92l-.242-.143-2.506.654.668-2.431-.157-.25a6.555 6.555 0 01-1.012-3.507c.002-3.633 2.972-6.59 6.624-6.59a6.606 6.606 0 014.681 1.933 6.55 6.55 0 011.938 4.663c-.002 3.633-2.972 6.59-6.621 6.59zm3.632-4.937c-.2-.1-1.178-.579-1.36-.645-.182-.066-.315-.099-.448.1-.133.197-.514.643-.63.776-.117.132-.233.148-.432.049-.199-.099-.84-.308-1.6-.983a5.972 5.972 0 01-1.108-1.373c-.117-.198-.013-.305.087-.404.09-.088.2-.231.299-.347.099-.116.132-.198.198-.33.067-.133.034-.249-.016-.348-.05-.1-.449-1.074-.615-1.47-.16-.385-.324-.334-.447-.34a8.614 8.614 0 00-.38-.006.736.736 0 00-.532.247c-.183.199-.697.677-.697 1.652 0 .976.714 1.918.813 2.05.1.133 1.404 2.133 3.4 2.992.476.204.847.326 1.136.418.476.15.91.129 1.254.078.382-.056 1.177-.479 1.343-.941.166-.463.166-.86.117-.943-.05-.083-.184-.133-.382-.232z" fill="#E4E5EA"/></svg></svg>

<svg width="20" height="20" viewBox="0 0 20 20" fill="none" xmlns="http://www.w3.org/2000/svg">
<path fill-rule="evenodd" clip-rule="evenodd" d="M15.6687 4.32548C14.9307 3.58614 14.0527 2.99991 13.0854 2.60073C12.1181 2.20155 11.0808 1.99738 10.0337 2.00003C5.64281 2.00003 2.06833 5.55666 2.06656 9.92847C2.06656 11.3257 2.43305 12.6893 3.12967 13.8923L2 18L6.22318 16.8969C7.39135 17.5298 8.70011 17.8616 10.0302 17.8622H10.0337C14.4237 17.8622 17.9982 14.3056 18 9.93377C18.003 8.89203 17.7985 7.86002 17.3984 6.8974C16.9982 5.93478 16.4104 5.06063 15.6687 4.32548ZM10.0337 16.5242H10.031C8.84504 16.5243 7.68086 16.2067 6.66067 15.6048L6.41929 15.4617L3.91325 16.1161L4.58147 13.6847L4.4244 13.4356C3.76132 12.385 3.4103 11.1692 3.41187 9.92847C3.41364 6.29501 6.3838 3.33895 10.0364 3.33895C10.9062 3.33703 11.7679 3.50683 12.5714 3.83853C13.3749 4.17023 14.1043 4.65725 14.7174 5.27138C15.3339 5.88259 15.8224 6.60933 16.1549 7.4096C16.4875 8.20986 16.6573 9.06779 16.6547 9.93377C16.6529 13.5672 13.6827 16.5242 10.0337 16.5242ZM13.6659 11.588C13.4662 11.4882 12.4883 11.0095 12.3055 10.9433C12.1236 10.877 11.9913 10.8443 11.8582 11.0422C11.7251 11.24 11.3435 11.686 11.2273 11.8185C11.111 11.951 10.9948 11.9669 10.796 11.868C10.5972 11.7691 9.95561 11.5597 9.1951 10.885C8.6032 10.3595 8.20387 9.71121 8.08762 9.51249C7.97137 9.31377 8.0752 9.2069 8.17547 9.10799C8.2651 9.01967 8.37425 8.87659 8.47364 8.76089C8.57303 8.64519 8.60587 8.56305 8.67242 8.43057C8.73898 8.29809 8.70614 8.1824 8.65556 8.08348C8.60587 7.98368 8.20742 7.00863 8.04147 6.61207C7.88085 6.22788 7.71668 6.27911 7.59422 6.27381C7.46739 6.26865 7.34046 6.26629 7.21352 6.26674C7.11258 6.2693 7.01327 6.29259 6.9218 6.33515C6.83033 6.3777 6.74868 6.4386 6.68196 6.51404C6.49916 6.71276 5.98535 7.19145 5.98535 8.1665C5.98535 9.14155 6.69883 10.0839 6.79821 10.2164C6.8976 10.3489 8.2021 12.3493 10.1988 13.2078C10.6744 13.4118 11.0454 13.5337 11.3338 13.6255C11.8103 13.7766 12.2442 13.7545 12.5877 13.7041C12.9701 13.6476 13.7653 13.2254 13.9312 12.7626C14.0971 12.2999 14.0971 11.9033 14.0475 11.8203C13.9978 11.7373 13.8638 11.6869 13.6659 11.588Z" fill="#E4E5EA"/>
</svg>

<svg width="16" height="16" viewBox="0 0 16 16" fill="none" xmlns="http://www.w3.org/2000/svg">
<path d="M8.77419 0C8.48914 0 8.25806 0.219525 8.25806 0.490323C8.25806 0.76112 8.48914 0.980645 8.77419 0.980645C12.1948 0.980645 14.9677 3.61494 14.9677 6.86452C14.9677 7.13531 15.1988 7.35484 15.4839 7.35484C15.7689 7.35484 16 7.13531 16 6.86452C16 3.07335 12.7649 0 8.77419 0Z" fill="#E4E5EA"/>
<path d="M2.1673 1.59966C2.45986 1.4568 2.97514 1.3844 3.27048 1.64579C3.63965 1.97253 4.20861 2.54529 4.59951 3.04502C4.9904 3.54475 5.53764 4.30588 5.61582 4.47502C5.694 4.64416 5.78086 5.24384 5.38997 5.60518C5.07726 5.89425 4.669 6.15104 4.50395 6.2433C4.35049 6.37143 4.09916 6.74764 4.32154 7.22738C4.59951 7.82706 5.19887 9.00335 6.23256 9.87979C7.26625 10.7562 8.36074 11.2175 9.04698 11.3636C9.09061 11.3636 9.14667 11.3735 9.21164 11.385C9.44413 11.426 9.79062 11.4872 10.0894 11.1868C10.3951 10.8793 10.6742 10.5564 10.7756 10.4333C10.9348 10.2693 11.3975 9.9905 11.9743 10.1873C12.6953 10.4333 13.5205 10.9715 13.894 11.2252C14.1928 11.4282 14.8582 11.9095 15.1536 12.1247C15.3331 12.2554 15.6331 12.6445 15.3968 13.1549C15.1014 13.7931 13.8419 15.2 12.7127 15.2C12.2957 15.2 8.26519 14.116 4.70374 11.0561C2.42881 9.10153 0.47054 5.71025 0.134663 4.56728C0.00726174 4.29563 -0.143304 3.62625 0.273647 3.12191C0.690597 2.61756 1.15968 2.09169 2.1673 1.59966Z" fill="#E4E5EA"/>
<path d="M8.77419 3.92258C8.48914 3.92258 8.25806 4.14211 8.25806 4.4129C8.25806 4.6837 8.48914 4.90323 8.77419 4.90323C9.91439 4.90323 10.8387 5.78133 10.8387 6.86452C10.8387 7.13531 11.0698 7.35484 11.3548 7.35484C11.6399 7.35484 11.871 7.13531 11.871 6.86452C11.871 5.23973 10.4845 3.92258 8.77419 3.92258Z" fill="#E4E5EA"/>
<path d="M8.25806 2.45161C8.25806 2.18082 8.48914 1.96129 8.77419 1.96129C11.6247 1.96129 13.9355 4.15654 13.9355 6.86452C13.9355 7.13531 13.7044 7.35484 13.4194 7.35484C13.1343 7.35484 12.9032 7.13531 12.9032 6.86452C12.9032 4.69813 11.0546 2.94194 8.77419 2.94194C8.48914 2.94194 8.25806 2.72241 8.25806 2.45161Z" fill="#E4E5EA"/>
</svg>
