<?xml version="1.0" encoding="utf-8"?><svg viewBox="0 0 140 24" xmlns="http://www.w3.org/2000/svg" xmlns:xlink="http://www.w3.org/1999/xlink"><style>:root>svg{display:none}:root>svg:target{display:block}</style><svg fill="none" viewBox="0 0 18 14" id="Vector" xmlns="http://www.w3.org/2000/svg"><path d="M16.22.098L1.447 5.795C.437 6.2.443 6.763 1.26 7.013l3.793 1.184 8.777-5.538c.415-.252.794-.116.482.16l-7.11 6.418H7.2h.001l-.261 3.91c.383 0 .552-.175.767-.383l1.843-1.791 3.832 2.83c.707.39 1.215.19 1.39-.654L17.29 1.293c.258-1.033-.394-1.5-1.068-1.195z" fill="#E4E5EA"/></svg><svg fill="none" viewBox="0 0 140 24" id="logo_welbex" xmlns="http://www.w3.org/2000/svg"><g clip-path="url(#bclip0_0_31)"><path fill-rule="evenodd" clip-rule="evenodd" d="M45.002 5l6.287 12.557-.79 1.563L43.168 5h1.833zm20.385 0l-7.27 14.12L50.46 5h1.774l5.882 11.051a178.757 178.757 0 002.131-4.217c.38-.778.756-1.547 1.129-2.306.372-.76.71-1.453 1.012-2.08.302-.628.556-1.162.762-1.6.206-.44.34-.722.405-.848h1.832zm13.875 1.374V5h-9.335v14.138h9.335v-1.374h-7.907v-4.989h6.596v-1.374h-6.596V6.374h7.907zm4.155 12.764V5h1.427v12.764h7.907v1.374h-9.334zM96.906 5v14.138h6.923c.103 0 .332-.034.685-.103.354-.07.736-.223 1.148-.461.193-.113.395-.26.607-.443.212-.182.402-.404.569-.668a3.85 3.85 0 00.415-.932c.109-.358.164-.775.164-1.252 0-.54-.071-1.01-.212-1.412a3.817 3.817 0 00-.54-1.035 2.868 2.868 0 00-.743-.697 4.144 4.144 0 00-.839-.414c.283-.276.527-.656.733-1.139.206-.483.308-1.064.308-1.741 0-.502-.054-.935-.163-1.3a3.815 3.815 0 00-.415-.94 2.912 2.912 0 00-.559-.66 3.728 3.728 0 00-1.225-.725 4.01 4.01 0 00-.54-.15 3.177 3.177 0 00-.569-.066h-5.747zm6.885 12.764c.051 0 .193-.022.424-.066.232-.044.479-.147.743-.31.263-.164.498-.411.704-.744.205-.333.308-.788.308-1.365s-.103-1.032-.308-1.365c-.206-.332-.441-.583-.704-.753a2.132 2.132 0 00-.752-.32 3.745 3.745 0 00-.434-.066h-5.439v4.99h5.458zm-.723-6.438c-.225.05-.364.075-.415.075h-4.32V6.374h4.32c.026 0 .148.02.366.057.219.037.457.135.714.292.257.156.492.401.704.734.212.332.318.794.318 1.384 0 .577-.099 1.035-.299 1.374-.199.339-.424.596-.675.772-.25.175-.488.288-.713.339zM121.639 5v1.374h-7.908v5.027h6.596v1.374h-6.596v4.99h7.908v1.373h-9.335V5h9.335zm10.692 8.114l4.822 6.024h1.89l-5.612-7.078L139.043 5h-1.89l-4.822 6.024L127.78 5h-2.141l5.612 7.06-5.612 7.078h2.141l4.551-6.024z" fill="#E4E5EA"/></g><g clip-path="url(#bclip1_0_31)"><path fill-rule="evenodd" clip-rule="evenodd" d="M24.595 0H0v12.784h1.32V1.29h21.954v4.238h-2.19v.01h-.016c-.058.114-.182.373-.37.774-.188.402-.42.89-.697 1.463-.276.574-.585 1.208-.926 1.902a790.01 790.01 0 00-1.032 2.109 160.12 160.12 0 01-1.95 3.856L10.715 5.536H9.092l7.002 12.909 6.007-11.66h2.492v-.014h.002V0zM0 17.196h.006v-.014H8.47L2.424 5.537H4.1l5.75 11.48-.723 1.429-.011-.021v.015H1.32v4.271h21.953V11.184h1.32V24H0v-6.804zM33.695 24V0h1.357v24h-1.357z" fill="#E4E5EA"/></g><defs><clipPath id="bclip0_0_31"><path fill="#fff" transform="translate(43 5)" d="M0 0h97v15H0z"/></clipPath><clipPath id="bclip1_0_31"><path fill="#fff" d="M0 0h35v24H0z"/></clipPath></defs></svg><svg fill="none" viewBox="0 0 16 16" id="phone" xmlns="http://www.w3.org/2000/svg"><path d="M8.774 0a.504.504 0 00-.516.49c0 .271.231.49.516.49 3.42 0 6.194 2.635 6.194 5.885 0 .27.23.49.516.49.285 0 .516-.22.516-.49C16 3.073 12.765 0 8.774 0zM2.167 1.6c.293-.143.808-.216 1.103.046.37.327.939.9 1.33 1.399.39.5.938 1.26 1.016 1.43.078.17.165.769-.226 1.13-.313.29-.721.546-.886.638a.825.825 0 00-.182.984c.278.6.877 1.776 1.91 2.653 1.034.876 2.129 1.337 2.815 1.484.044 0 .1.01.165.021.232.041.579.102.877-.198.306-.308.585-.63.687-.754.159-.164.622-.442 1.198-.246.721.246 1.546.785 1.92 1.038.299.203.964.684 1.26.9.18.13.48.52.243 1.03-.296.638-1.555 2.045-2.684 2.045-.417 0-4.448-1.084-8.01-4.144C2.43 9.102.472 5.71.136 4.567c-.128-.271-.278-.94.139-1.445.417-.504.886-1.03 1.893-1.522zM8.774 3.923a.504.504 0 00-.516.49c0 .27.231.49.516.49 1.14 0 2.065.878 2.065 1.962 0 .27.23.49.516.49.285 0 .516-.22.516-.49 0-1.625-1.386-2.942-3.097-2.942z" fill="#E4E5EA"/><path d="M8.258 2.452c0-.271.231-.49.516-.49 2.85 0 5.162 2.195 5.162 4.903 0 .27-.232.49-.517.49a.504.504 0 01-.516-.49c0-2.167-1.848-3.923-4.129-3.923a.504.504 0 01-.516-.49z" fill="#E4E5EA"/></svg><svg fill="none" viewBox="0 0 20 20" id="whatsapp" xmlns="http://www.w3.org/2000/svg"><path fill-rule="evenodd" clip-rule="evenodd" d="M15.669 4.325A7.948 7.948 0 0010.034 2C5.643 2 2.068 5.557 2.067 9.928c0 1.398.366 2.761 1.063 3.964L2 18l4.223-1.103a8 8 0 003.807.965h.004c4.39 0 7.964-3.556 7.966-7.928a7.852 7.852 0 00-2.331-5.609zm-5.635 12.2h-.003a6.632 6.632 0 01-3.37-.92l-.242-.143-2.506.654.668-2.431-.157-.25a6.555 6.555 0 01-1.012-3.507c.002-3.633 2.972-6.59 6.624-6.59a6.606 6.606 0 014.681 1.933 6.55 6.55 0 011.938 4.663c-.002 3.633-2.972 6.59-6.621 6.59zm3.632-4.937c-.2-.1-1.178-.579-1.36-.645-.182-.066-.315-.099-.448.1-.133.197-.514.643-.63.776-.117.132-.233.148-.432.049-.199-.099-.84-.308-1.6-.983a5.972 5.972 0 01-1.108-1.373c-.117-.198-.013-.305.087-.404.09-.088.2-.231.299-.347.099-.116.132-.198.198-.33.067-.133.034-.249-.016-.348-.05-.1-.449-1.074-.615-1.47-.16-.385-.324-.334-.447-.34a8.614 8.614 0 00-.38-.006.736.736 0 00-.532.247c-.183.199-.697.677-.697 1.652 0 .976.714 1.918.813 2.05.1.133 1.404 2.133 3.4 2.992.476.204.847.326 1.136.418.476.15.91.129 1.254.078.382-.056 1.177-.479 1.343-.941.166-.463.166-.86.117-.943-.05-.083-.184-.133-.382-.232z" fill="#E4E5EA"/></svg></svg>